# xmcd CD database file
#
# Track frame offsets:
#	150
#	14311
#	34352
#	49521
#	64734
#	79264
#	93712
#	107234
#	123142
#	137175
#	157175
#
# Disc length: 2281 seconds
#
# Revision: 0
# Processed by: cddbd v1.5.1PL0 Copyright (c) Steve Scherf et al.
# Submitted via: CDex 1.51
#
DISCID=9608e70b
DTITLE=Los Caminantes - En Acción CD B/C
DYEAR=2004
DGENRE=Corridos
TTITLE0=La Muerte de La Mafia
TTITLE1=El Potro Lobo Gateado
TTITLE2=Los Dos Hermanos
TTITLE3=Sucedio en La Barranca
TTITLE4=El Hijo Desobediente
TTITLE5=Benito Canales
TTITLE6=La  Mafía Muere
TTITLE7=Arnulfo Gonzalez
TTITLE8=Benjamín Argumedo
TTITLE9=El Corrido de Simón Blanco
TTITLE10=Valentín de La Sierra
EXTD=YEAR: 2004
EXTT0=
EXTT1=
EXTT2=
EXTT3=
EXTT4=
EXTT5=
EXTT6=
EXTT7=
EXTT8=
EXTT9=
EXTT10=
PLAYORDER=
